<?xml version="1.0" encoding="UTF-8" standalone="no"?>
<!-- Generator: Adobe Illustrator 19.2.0, SVG Export Plug-In . SVG Version: 6.00 Build 0)  -->

<svg
   xmlns:dc="http://purl.org/dc/elements/1.1/"
   xmlns:cc="http://creativecommons.org/ns#"
   xmlns:rdf="http://www.w3.org/1999/02/22-rdf-syntax-ns#"
   xmlns:svg="http://www.w3.org/2000/svg"
   xmlns="http://www.w3.org/2000/svg"
   xmlns:sodipodi="http://sodipodi.sourceforge.net/DTD/sodipodi-0.dtd"
   xmlns:inkscape="http://www.inkscape.org/namespaces/inkscape"
   version="1.0"
   id="Layer_1"
   x="0px"
   y="0px"
   width="1400px"
   height="980px"
   viewBox="0 0 1400 980"
   enable-background="new 0 0 1400 980"
   xml:space="preserve"
   sodipodi:docname="music.svg"
   inkscape:version="0.92.2 (unknown)"><metadata
     id="metadata333"><rdf:RDF><cc:Work
         rdf:about=""><dc:format>image/svg+xml</dc:format><dc:type
           rdf:resource="http://purl.org/dc/dcmitype/StillImage" /><dc:title></dc:title></cc:Work></rdf:RDF></metadata><defs
     id="defs331" /><sodipodi:namedview
     pagecolor="#ffffff"
     bordercolor="#666666"
     borderopacity="1"
     objecttolerance="10"
     gridtolerance="10"
     guidetolerance="10"
     inkscape:pageopacity="0"
     inkscape:pageshadow="2"
     inkscape:window-width="1920"
     inkscape:window-height="1001"
     id="namedview329"
     showgrid="false"
     inkscape:zoom="0.48163265"
     inkscape:cx="759.89486"
     inkscape:cy="303.18568"
     inkscape:window-x="0"
     inkscape:window-y="0"
     inkscape:window-maximized="1"
     inkscape:current-layer="Layer_1" /><rect
     fill="#FFE3C2"
     width="1400"
     height="980"
     id="rect2"
     style="fill:none;fill-opacity:0" /><g
     opacity="0.1"
     id="g20"><path
       d="M196.7,390H292c12.5,0,22.6-10.1,22.6-22.6V240.9c0-12.5-10.1-22.6-22.6-22.6h-95.3c-12.5,0-22.6,10.1-22.6,22.6v126.4   C174.1,379.9,184.2,390,196.7,390z"
       id="path4" /><path
       d="M1021.2,208.9c0-18.3-14.8-33.1-33.1-33.1h-148c-18.3,0-33.1,14.8-33.1,33.1v132.2v15.7c0,1.7,0.1,3.4,0.4,5   c0.3,1.6,0.6,3.2,1.1,4.8c0.2,0.5,0.3,1,0.5,1.5c0.4,1,0.8,2,1.3,3c1.2,2.4,2.6,4.7,4.3,6.7c0.7,0.8,1.4,1.6,2.1,2.4   c1.1,1.1,2.3,2.2,3.6,3.1c0.8,0.6,1.7,1.2,2.6,1.8c0.5,0.3,0.9,0.5,1.4,0.8c0.9,0.5,1.9,1,2.9,1.4c4,1.7,8.3,2.6,12.9,2.6h148l0,0   c4.8,0,9.4-1,13.6-2.9c0.5-0.2,1-0.5,1.5-0.7c1-0.5,2-1.1,3-1.7c0.3-0.2,0.6-0.4,0.9-0.6c8.6-6,14.2-15.9,14.2-27.2v-15.7h0V208.9z   "
       id="path6" /><path
       d="M504.7,592.6H196.5c-16.2,0-29.3,13.1-29.3,29.3V778c0,16.2,13.1,29.3,29.3,29.3h308.1c16.2,0,29.3-13.1,29.3-29.3V622   C534,605.8,520.9,592.6,504.7,592.6z"
       id="path8" /><path
       d="M657.9,350.3l6.1-1.3l2.6-0.6l0,0l5.1-1.1c17.8-3.9,30.5-19.6,30.5-37.9v-5.1c0-18.2-12.7-34-30.5-37.9l-5.1-1.1l0,0   l-8.7-1.9c-1-4-4.2-7.2-8.4-8.1l-1.3-0.3v-15c0-29.6-14.8-55.7-37.4-71.3c-0.1-4.6-3-8.9-7.6-10.7c-26.8-10.1-56.4-10.1-83.1,0   c-4.7,1.8-7.5,6.1-7.6,10.7c-22.6,15.6-37.4,41.7-37.4,71.3v15l-1.3,0.3c-4.2,0.9-7.4,4.1-8.4,8.1l-8.7,1.9l0,0l-5.1,1.1   c-17.8,3.9-30.5,19.6-30.5,37.9v5.1c0,18.2,12.7,34,30.5,37.9l4.3,0.9c-0.2,3.5-0.4,7.5-0.5,11.7c-0.2,17.8,2,29.2,6.8,35   c6.5,7.7,23.6,15.6,36.1,20.7c0.6,2.7,2.6,5.1,5.5,6l26.4,8.6c4.3,1.4,8.9-1,10.3-5.3l0.9-2.7c1.4-4.3-1-8.9-5.3-10.3l-26.4-8.6   c-2.8-0.9-5.7-0.2-7.8,1.5c-12.8-5.2-26.7-12-31-17.2c-1.1-1.3-4.5-7-4.2-27.5c0-2.2,0.1-4.3,0.2-6.4c1.6,2.3,4,4,6.9,4.6l11.7,2.4   c14.8,3.1,28.7-8.2,28.7-23.3v-61.1c0-13.6-11.3-24.2-24.4-23.8v-10.8c0-24.6,12.4-46.4,31.3-59.3c2.7,1.1,5.7,1.2,8.6,0.1   c20.7-7.7,43.6-7.7,64.3,0c2.9,1.1,5.9,1,8.6-0.1c18.9,13,31.3,34.7,31.3,59.3v10.8c-13.1-0.3-24.4,10.2-24.4,23.8v61.1   c0,15.1,13.9,26.4,28.7,23.3l11.7-2.4C653.7,357.5,656.9,354.3,657.9,350.3z"
       id="path10" /><path
       d="M1197.8,390h84.5c5.5,0,8.3-4.7,4.5-7.6l-12.9-9.9c-3.5-2.6-8.3-4.1-13.3-4.1h-11.1v-29.1c15.8-3.7,28.1-16.6,31-32.7h0   c0-0.2,0.1-0.4,0.1-0.6c0-0.3,0.1-0.5,0.1-0.8c0.1-0.4,0.1-0.8,0.1-1.2c0-0.3,0.1-0.5,0.1-0.8c0-0.4,0.1-0.9,0.1-1.3   c0-0.2,0-0.4,0-0.7c0-0.7,0.1-1.3,0.1-2v-5.5v-8.4v-12.8v-8.4v-5.5c0-0.7,0-1.3-0.1-2c0-0.2,0-0.4,0-0.7c0-0.4-0.1-0.9-0.1-1.3   c0-0.3-0.1-0.5-0.1-0.8c0-0.4-0.1-0.8-0.1-1.2c0-0.3-0.1-0.5-0.1-0.8c0-0.2-0.1-0.4-0.1-0.6h0c-3.4-19.2-20.2-33.8-40.4-33.8l0,0   c-20.2,0-37,14.6-40.4,33.8h0c0,0.2-0.1,0.4-0.1,0.6c0,0.3-0.1,0.5-0.1,0.8c-0.1,0.4-0.1,0.8-0.1,1.2c0,0.3-0.1,0.5-0.1,0.8   c0,0.4-0.1,0.9-0.1,1.3c0,0.2,0,0.4,0,0.7c0,0.7-0.1,1.3-0.1,2v5.5v8.4v12.8v8.4v5.5c0,0.7,0,1.3,0.1,2c0,0.2,0,0.4,0,0.7   c0,0.4,0.1,0.9,0.1,1.3c0,0.3,0.1,0.5,0.1,0.8c0,0.4,0.1,0.8,0.1,1.2c0,0.3,0.1,0.5,0.1,0.8c0,0.2,0.1,0.4,0.1,0.6h0   c2.9,16.1,15.2,29,31,32.7v29.1h-11.1c-5,0-9.8,1.5-13.3,4.1l-12.9,9.9C1189.5,385.3,1192.3,390,1197.8,390z"
       id="path12" /><path
       d="M776.1,565.8H661.8c-11.9,0-21.6,9.7-21.6,21.6V801c0,11.9,9.7,21.6,21.6,21.6h-1.2l2.3,8.8c0.4,1.7,1.9,2.8,3.6,2.8h9.2   c1.7,0,3.2-1.2,3.6-2.8l2.3-8.8h74.6l2.3,8.8c0.4,1.7,1.9,2.8,3.6,2.8h9.2c1.7,0,3.2-1.2,3.6-2.8l2.3-8.8h-1.2   c11.9,0,21.6-9.7,21.6-21.6V587.4C797.7,575.5,788.1,565.8,776.1,565.8z"
       id="path14" /><path
       d="M996.3,589.7h-88.6c-10.9,0-19.7,8.8-19.7,19.7v181.3c0,10.9,8.8,19.7,19.7,19.7h88.6c10.9,0,19.7-8.8,19.7-19.7V609.4   C1016,598.5,1007.1,589.7,996.3,589.7z"
       id="path16" /><path
       d="M1305.3,636.7c-35-36.7-93-38.1-129.7-3.1c-36.7,35-38.1,93-3.1,129.7c35,36.7,93,38.1,129.7,3.1   C1338.8,731.5,1340.3,673.4,1305.3,636.7z M1247.5,709c-5,4.8-12.9,4.6-17.6-0.4c-4.8-5-4.6-12.9,0.4-17.6c5-4.8,12.9-4.6,17.6,0.4   C1252.7,696.4,1252.5,704.3,1247.5,709z"
       id="path18" /></g><g
     id="g326"><g
       id="g58"><path
         fill="#BBBEC2"
         d="M282,380h-95.3c-12.5,0-22.6-10.1-22.6-22.6V230.9c0-12.5,10.1-22.6,22.6-22.6H282    c12.5,0,22.6,10.1,22.6,22.6v126.4C304.7,369.9,294.5,380,282,380z"
         id="path22" /><g
         id="g56"><path
           fill="#184967"
           d="M184.1,369.6L184.1,369.6c-3.4,0-6.2-2.8-6.2-6.2V224.9c0-3.4,2.8-6.2,6.2-6.2l0,0c3.4,0,6.2,2.8,6.2,6.2     v138.6C190.3,366.8,187.6,369.6,184.1,369.6z"
           id="path24" /><path
           fill="#E6E9EE"
           d="M187.2,310.8h-6.1c-5,0-9.1-4.1-9.1-9.1v-11.9c0-5,4.1-9.1,9.1-9.1h6.1c5,0,9.1,4.1,9.1,9.1v11.9     C196.3,306.7,192.2,310.8,187.2,310.8z"
           id="path26" /><path
           fill="#BBBEC2"
           d="M188.5,292.4h-8.7c-1,0-1.9-0.8-1.9-1.9l0,0c0-1,0.8-1.9,1.9-1.9h8.7c1,0,1.9,0.8,1.9,1.9l0,0     C190.3,291.5,189.5,292.4,188.5,292.4z"
           id="path28" /><path
           fill="#BBBEC2"
           d="M188.5,303.3h-8.7c-1,0-1.9-0.8-1.9-1.9l0,0c0-1,0.8-1.9,1.9-1.9h8.7c1,0,1.9,0.8,1.9,1.9l0,0     C190.3,302.5,189.5,303.3,188.5,303.3z"
           id="path30" /><path
           fill="#184967"
           d="M217.6,369.6L217.6,369.6c-3.4,0-6.2-2.8-6.2-6.2V224.9c0-3.4,2.8-6.2,6.2-6.2l0,0c3.4,0,6.2,2.8,6.2,6.2     v138.6C223.8,366.8,221,369.6,217.6,369.6z"
           id="path32" /><path
           fill="#E6E9EE"
           d="M220.7,344.3h-6.1c-5,0-9.1-4.1-9.1-9.1v-11.9c0-5,4.1-9.1,9.1-9.1h6.1c5,0,9.1,4.1,9.1,9.1v11.9     C229.8,340.2,225.7,344.3,220.7,344.3z"
           id="path34" /><path
           fill="#BBBEC2"
           d="M222,325.9h-8.7c-1,0-1.9-0.8-1.9-1.9l0,0c0-1,0.8-1.9,1.9-1.9h8.7c1,0,1.9,0.8,1.9,1.9l0,0     C223.8,325.1,223,325.9,222,325.9z"
           id="path36" /><path
           fill="#BBBEC2"
           d="M222,336.9h-8.7c-1,0-1.9-0.8-1.9-1.9l0,0c0-1,0.8-1.9,1.9-1.9h8.7c1,0,1.9,0.8,1.9,1.9l0,0     C223.8,336,223,336.9,222,336.9z"
           id="path38" /><path
           fill="#184967"
           d="M251.1,369.6L251.1,369.6c-3.4,0-6.2-2.8-6.2-6.2V224.9c0-3.4,2.8-6.2,6.2-6.2h0c3.4,0,6.2,2.8,6.2,6.2     v138.6C257.3,366.8,254.5,369.6,251.1,369.6z"
           id="path40" /><path
           fill="#E6E9EE"
           d="M254.2,260.6H248c-5,0-9.1-4.1-9.1-9.1v-11.9c0-5,4.1-9.1,9.1-9.1h6.1c5,0,9.1,4.1,9.1,9.1v11.9     C263.3,256.6,259.2,260.6,254.2,260.6z"
           id="path42" /><path
           fill="#BBBEC2"
           d="M255.4,242.2h-8.7c-1,0-1.9-0.8-1.9-1.9l0,0c0-1,0.8-1.9,1.9-1.9h8.7c1,0,1.9,0.8,1.9,1.9l0,0     C257.3,241.4,256.5,242.2,255.4,242.2z"
           id="path44" /><path
           fill="#BBBEC2"
           d="M255.4,253.2h-8.7c-1,0-1.9-0.8-1.9-1.9l0,0c0-1,0.8-1.9,1.9-1.9h8.7c1,0,1.9,0.8,1.9,1.9l0,0     C257.3,252.4,256.5,253.2,255.4,253.2z"
           id="path46" /><path
           fill="#184967"
           d="M284.6,369.6L284.6,369.6c-3.4,0-6.2-2.8-6.2-6.2V224.9c0-3.4,2.8-6.2,6.2-6.2h0c3.4,0,6.2,2.8,6.2,6.2     v138.6C290.8,366.8,288,369.6,284.6,369.6z"
           id="path48" /><path
           fill="#E6E9EE"
           d="M287.7,335h-6.1c-5,0-9.1-4.1-9.1-9.1v-11.9c0-5,4.1-9.1,9.1-9.1h6.1c5,0,9.1,4.1,9.1,9.1v11.9     C296.8,330.9,292.7,335,287.7,335z"
           id="path50" /><path
           fill="#BBBEC2"
           d="M288.9,316.6h-8.7c-1,0-1.9-0.8-1.9-1.9l0,0c0-1,0.8-1.9,1.9-1.9h8.7c1,0,1.9,0.8,1.9,1.9l0,0     C290.8,315.7,290,316.6,288.9,316.6z"
           id="path52" /><path
           fill="#BBBEC2"
           d="M288.9,327.6h-8.7c-1,0-1.9-0.8-1.9-1.9l0,0c0-1,0.8-1.9,1.9-1.9h8.7c1,0,1.9,0.8,1.9,1.9l0,0     C290.8,326.7,290,327.6,288.9,327.6z"
           id="path54" /></g></g><g
       id="g102"><path
         fill="#797979"
         d="M978.1,380h-148c-18.3,0-33.1-14.8-33.1-33.1v-148c0-18.3,14.8-33.1,33.1-33.1h148    c18.3,0,33.1,14.8,33.1,33.1v148C1011.2,365.2,996.4,380,978.1,380z"
         id="path60" /><path
         fill="#4A4A4A"
         d="M797,331.1v15.7c0,18.3,14.8,33.1,33.1,33.1h148c18.3,0,33.1-14.8,33.1-33.1v-15.7H797z"
         id="path62" /><circle
         fill="#41324E"
         cx="882.2"
         cy="249.7"
         r="69.2"
         id="circle64" /><circle
         fill="#6C5382"
         cx="882.2"
         cy="249.7"
         r="11.9"
         id="circle66" /><g
         id="g70"><path
           fill="#CFD2CF"
           d="M889.1,298.2c-2.3,0-4.5-1.2-5.8-3.3c-1.9-3.2-0.9-7.4,2.3-9.3l44.1-26.6l46.3-64.4     c2.2-3,6.4-3.7,9.5-1.5c3,2.2,3.7,6.4,1.5,9.5l-47.1,65.5c-0.5,0.7-1.2,1.4-2,1.8l-45.3,27.3     C891.5,297.9,890.3,298.2,889.1,298.2z"
           id="path68" /></g><circle
         fill="#EDE082"
         cx="981.6"
         cy="198.6"
         r="22.8"
         id="circle72" /><circle
         fill="#B3A962"
         cx="981.6"
         cy="198.6"
         r="13.8"
         id="circle74" /><path
         fill="#EDE082"
         d="M871.7,303.4l-2.9-5c-2.2-3.9-0.9-8.9,3-11.1l21.3-12.3c3.9-2.2,8.9-0.9,11.1,3l2.9,5    c2.2,3.9,0.9,8.9-3,11.1l-21.3,12.3C879,308.7,874,307.3,871.7,303.4z"
         id="path76" /><path
         fill="#EDE082"
         d="M988.6,296.6h-14.2c-3.7,0-6.7-3-6.7-6.7v-0.6c0-3.7,3-6.7,6.7-6.7h14.2c3.7,0,6.7,3,6.7,6.7v0.6    C995.4,293.6,992.4,296.6,988.6,296.6z"
         id="path78" /><path
         fill="#EDE082"
         d="M988.6,318.8h-14.2c-3.7,0-6.7-3-6.7-6.7v-0.6c0-3.7,3-6.7,6.7-6.7h14.2c3.7,0,6.7,3,6.7,6.7v0.6    C995.4,315.8,992.4,318.8,988.6,318.8z"
         id="path80" /><circle
         fill="#EDF1F3"
         cx="831.3"
         cy="355.6"
         r="11.6"
         id="circle82" /><path
         fill="#41324E"
         d="M831.3,353.9L831.3,353.9c-1.6,0-3-1.3-3-3v-8.5c0-1.6,1.3-3,3-3l0,0c1.6,0,3,1.3,3,3v8.5    C834.3,352.6,833,353.9,831.3,353.9z"
         id="path84" /><circle
         fill="#EDF1F3"
         cx="877.5"
         cy="355.6"
         r="11.6"
         id="circle86" /><path
         fill="#41324E"
         d="M877.5,353.9L877.5,353.9c-1.6,0-3-1.3-3-3v-8.5c0-1.6,1.3-3,3-3l0,0c1.6,0,3,1.3,3,3v8.5    C880.5,352.6,879.2,353.9,877.5,353.9z"
         id="path88" /><circle
         fill="#EDF1F3"
         cx="923.7"
         cy="355.6"
         r="11.6"
         id="circle90" /><path
         fill="#41324E"
         d="M923.7,353.9L923.7,353.9c-1.6,0-3-1.3-3-3v-8.5c0-1.6,1.3-3,3-3l0,0c1.6,0,3,1.3,3,3v8.5    C926.7,352.6,925.4,353.9,923.7,353.9z"
         id="path92" /><path
         fill="#EDF1F3"
         d="M964.2,370.1L964.2,370.1c-1.6,0-2.8-1.3-2.8-2.8v-25c0-1.6,1.3-2.8,2.8-2.8l0,0c1.6,0,2.8,1.3,2.8,2.8v25    C967,368.8,965.7,370.1,964.2,370.1z"
         id="path94" /><path
         fill="#41324E"
         d="M968.2,354.3h-8.1c-1.5,0-2.7-1.2-2.7-2.7v-2.2c0-1.5,1.2-2.7,2.7-2.7h8.1c1.5,0,2.7,1.2,2.7,2.7v2.2    C970.9,353.1,969.7,354.3,968.2,354.3z"
         id="path96" /><path
         fill="#EDF1F3"
         d="M982,370.1L982,370.1c-1.6,0-2.8-1.3-2.8-2.8v-25c0-1.6,1.3-2.8,2.8-2.8l0,0c1.6,0,2.8,1.3,2.8,2.8v25    C984.8,368.8,983.6,370.1,982,370.1z"
         id="path98" /><path
         fill="#41324E"
         d="M986.1,362.3h-8.1c-1.5,0-2.7-1.2-2.7-2.7v-2.2c0-1.5,1.2-2.7,2.7-2.7h8.1c1.5,0,2.7,1.2,2.7,2.7v2.2    C988.7,361.1,987.6,362.3,986.1,362.3z"
         id="path100" /></g><g
       id="g192"><path
         fill="#6F7588"
         d="M494.7,797.4H186.5c-16.2,0-29.3-13.1-29.3-29.3V612c0-16.2,13.1-29.3,29.3-29.3h308.1    c16.2,0,29.3,13.1,29.3,29.3V768C524,784.2,510.9,797.4,494.7,797.4z"
         id="path104" /><path
         fill="#FCF4E4"
         d="M476,782.5H205.2c-14.2,0-25.7-11.5-25.7-25.7v-62.3c0-2.5,2-4.5,4.5-4.5h313.2c2.5,0,4.5,2,4.5,4.5v62.3    C501.7,771,490.2,782.5,476,782.5z"
         id="path106" /><rect
         x="203.9"
         y="744.6"
         fill="#E0D9CB"
         width="5.8"
         height="37.9"
         id="rect108" /><rect
         x="237.4"
         y="744.6"
         fill="#E0D9CB"
         width="5.8"
         height="37.9"
         id="rect110" /><rect
         x="270.8"
         y="744.6"
         fill="#E0D9CB"
         width="5.8"
         height="37.9"
         id="rect112" /><rect
         x="304.3"
         y="744.6"
         fill="#E0D9CB"
         width="5.8"
         height="37.9"
         id="rect114" /><rect
         x="337.7"
         y="744.6"
         fill="#E0D9CB"
         width="5.8"
         height="37.9"
         id="rect116" /><rect
         x="371.1"
         y="744.6"
         fill="#E0D9CB"
         width="5.8"
         height="37.9"
         id="rect118" /><rect
         x="404.6"
         y="744.6"
         fill="#E0D9CB"
         width="5.8"
         height="37.9"
         id="rect120" /><rect
         x="438"
         y="744.6"
         fill="#E0D9CB"
         width="5.8"
         height="37.9"
         id="rect122" /><rect
         x="471.5"
         y="744.6"
         fill="#E0D9CB"
         width="5.8"
         height="37.9"
         id="rect124" /><g
         id="g144"><path
           fill="#444A54"
           d="M209.9,744.6h-6.1c-2.7,0-4.9-2.2-4.9-4.9V690h15.9v49.7C214.8,742.4,212.6,744.6,209.9,744.6z"
           id="path126" /><path
           fill="#444A54"
           d="M243.3,744.6h-6.1c-2.7,0-4.9-2.2-4.9-4.9V690h15.9v49.7C248.2,742.4,246,744.6,243.3,744.6z"
           id="path128" /><path
           fill="#444A54"
           d="M276.8,744.6h-6.1c-2.7,0-4.9-2.2-4.9-4.9V690h15.9v49.7C281.7,742.4,279.5,744.6,276.8,744.6z"
           id="path130" /><path
           fill="#444A54"
           d="M310.2,744.6h-6.1c-2.7,0-4.9-2.2-4.9-4.9V690h15.9v49.7C315.1,742.4,312.9,744.6,310.2,744.6z"
           id="path132" /><path
           fill="#444A54"
           d="M343.6,744.6h-6.1c-2.7,0-4.9-2.2-4.9-4.9V690h15.9v49.7C348.6,742.4,346.4,744.6,343.6,744.6z"
           id="path134" /><path
           fill="#444A54"
           d="M377.1,744.6H371c-2.7,0-4.9-2.2-4.9-4.9V690H382v49.7C382,742.4,379.8,744.6,377.1,744.6z"
           id="path136" /><path
           fill="#444A54"
           d="M410.5,744.6h-6.1c-2.7,0-4.9-2.2-4.9-4.9V690h15.9v49.7C415.4,742.4,413.2,744.6,410.5,744.6z"
           id="path138" /><path
           fill="#444A54"
           d="M444,744.6h-6.1c-2.7,0-4.9-2.2-4.9-4.9V690h15.9v49.7C448.9,742.4,446.7,744.6,444,744.6z"
           id="path140" /><path
           fill="#444A54"
           d="M477.4,744.6h-6.1c-2.7,0-4.9-2.2-4.9-4.9V690h15.9v49.7C482.3,742.4,480.1,744.6,477.4,744.6z"
           id="path142" /></g><path
         fill="#444A54"
         d="M232.4,650.5h-42.1c-6,0-10.8-4.8-10.8-10.8v-15.4c0-6,4.8-10.8,10.8-10.8h42.1c6,0,10.8,4.8,10.8,10.8    v15.4C243.2,645.7,238.3,650.5,232.4,650.5z"
         id="path146" /><path
         fill="#444A54"
         d="M490.9,650.5h-42.1c-6,0-10.8-4.8-10.8-10.8v-15.4c0-6,4.8-10.8,10.8-10.8h42.1c6,0,10.8,4.8,10.8,10.8    v15.4C501.7,645.7,496.9,650.5,490.9,650.5z"
         id="path148" /><circle
         fill="#666D78"
         cx="211.3"
         cy="632"
         r="13.3"
         id="circle150" /><circle
         fill="#666D78"
         cx="469.9"
         cy="632"
         r="13.3"
         id="circle152" /><path
         fill="#FFCE55"
         d="M385.6,645.3h-90c-7.7,0-13.9-6.2-13.9-13.9v-16.3c0-7.7,6.2-13.9,13.9-13.9h90c7.7,0,13.9,6.2,13.9,13.9    v16.3C399.5,639,393.3,645.3,385.6,645.3z"
         id="path154" /><g
         id="g160"><path
           fill="#E6E9EC"
           d="M291.7,661.3h-7.3c-1.5,0-2.6-1.2-2.6-2.6v-0.7c0-1.5,1.2-2.6,2.6-2.6h7.3c1.5,0,2.6,1.2,2.6,2.6v0.7     C294.3,660.1,293.1,661.3,291.7,661.3z"
           id="path156" /><path
           fill="#E6E9EC"
           d="M291.7,673.2h-7.3c-1.5,0-2.6-1.2-2.6-2.6v-0.7c0-1.5,1.2-2.6,2.6-2.6h7.3c1.5,0,2.6,1.2,2.6,2.6v0.7     C294.3,672.1,293.1,673.2,291.7,673.2z"
           id="path158" /></g><g
         id="g166"><path
           fill="#E6E9EC"
           d="M312.5,661.3h-7.3c-1.5,0-2.6-1.2-2.6-2.6v-0.7c0-1.5,1.2-2.6,2.6-2.6h7.3c1.5,0,2.6,1.2,2.6,2.6v0.7     C315.1,660.1,313.9,661.3,312.5,661.3z"
           id="path162" /><path
           fill="#E6E9EC"
           d="M312.5,673.2h-7.3c-1.5,0-2.6-1.2-2.6-2.6v-0.7c0-1.5,1.2-2.6,2.6-2.6h7.3c1.5,0,2.6,1.2,2.6,2.6v0.7     C315.1,672.1,313.9,673.2,312.5,673.2z"
           id="path164" /></g><g
         id="g172"><path
           fill="#E6E9EC"
           d="M333.3,661.3h-7.3c-1.5,0-2.6-1.2-2.6-2.6v-0.7c0-1.5,1.2-2.6,2.6-2.6h7.3c1.5,0,2.6,1.2,2.6,2.6v0.7     C335.9,660.1,334.7,661.3,333.3,661.3z"
           id="path168" /><path
           fill="#E6E9EC"
           d="M333.3,673.2h-7.3c-1.5,0-2.6-1.2-2.6-2.6v-0.7c0-1.5,1.2-2.6,2.6-2.6h7.3c1.5,0,2.6,1.2,2.6,2.6v0.7     C335.9,672.1,334.7,673.2,333.3,673.2z"
           id="path170" /></g><g
         id="g178"><path
           fill="#E6E9EC"
           d="M355.3,661.3h-7.3c-1.5,0-2.6-1.2-2.6-2.6v-0.7c0-1.5,1.2-2.6,2.6-2.6h7.3c1.5,0,2.6,1.2,2.6,2.6v0.7     C357.9,660.1,356.7,661.3,355.3,661.3z"
           id="path174" /><path
           fill="#E6E9EC"
           d="M355.3,673.2h-7.3c-1.5,0-2.6-1.2-2.6-2.6v-0.7c0-1.5,1.2-2.6,2.6-2.6h7.3c1.5,0,2.6,1.2,2.6,2.6v0.7     C357.9,672.1,356.7,673.2,355.3,673.2z"
           id="path176" /></g><g
         id="g184"><path
           fill="#E6E9EC"
           d="M376.1,661.3h-7.3c-1.5,0-2.6-1.2-2.6-2.6v-0.7c0-1.5,1.2-2.6,2.6-2.6h7.3c1.5,0,2.6,1.2,2.6,2.6v0.7     C378.7,660.1,377.5,661.3,376.1,661.3z"
           id="path180" /><path
           fill="#E6E9EC"
           d="M376.1,673.2h-7.3c-1.5,0-2.6-1.2-2.6-2.6v-0.7c0-1.5,1.2-2.6,2.6-2.6h7.3c1.5,0,2.6,1.2,2.6,2.6v0.7     C378.7,672.1,377.5,673.2,376.1,673.2z"
           id="path182" /></g><g
         id="g190"><path
           fill="#E6E9EC"
           d="M396.9,661.3h-7.3c-1.5,0-2.6-1.2-2.6-2.6v-0.7c0-1.5,1.2-2.6,2.6-2.6h7.3c1.5,0,2.6,1.2,2.6,2.6v0.7     C399.5,660.1,398.3,661.3,396.9,661.3z"
           id="path186" /><path
           fill="#E6E9EC"
           d="M396.9,673.2h-7.3c-1.5,0-2.6-1.2-2.6-2.6v-0.7c0-1.5,1.2-2.6,2.6-2.6h7.3c1.5,0,2.6,1.2,2.6,2.6v0.7     C399.5,672.1,398.3,673.2,396.9,673.2z"
           id="path188" /></g></g><g
       id="g218"><path
         fill="#324D5B"
         d="M551.6,143.5L551.6,143.5c-47.8,0-86.6,38.8-86.6,86.6v104.4h14.6V231.6c0-39.8,32.2-72,72-72h0    c39.8,0,72,32.2,72,72v102.9h14.6V230.1C638.2,182.3,599.4,143.5,551.6,143.5z"
         id="path194" /><g
         id="g198"><path
           fill="#CFD2CF"
           d="M504,411.1c-0.6,0-1.2-0.1-1.8-0.3c-4.1-1.4-40-13.9-50.1-25.9c-4.8-5.8-7.1-17.2-6.8-35     c0.2-12.3,1.5-23.1,1.5-23.5c0.4-3.1,3.2-5.3,6.3-4.9c3.1,0.4,5.3,3.2,4.9,6.3l0,0c0,0.1-1.3,10.7-1.5,22.4     c-0.3,20.5,3.1,26.2,4.2,27.5c6.1,7.3,30.9,17.6,45.1,22.5c3,1,4.5,4.2,3.5,7.2C508.5,409.6,506.3,411.1,504,411.1z"
           id="path196" /></g><g
         id="g212"><path
           fill="#26A6D1"
           d="M441.4,337.3l17.5,3.8v-88.4l-17.5,3.8c-17.8,3.9-30.5,19.6-30.5,37.9v5.1     C410.9,317.6,423.6,333.4,441.4,337.3z"
           id="path200" /><polygon
           fill="#208EB3"
           points="446.5,338.4 458.9,341.1 458.9,252.7 446.5,255.4    "
           id="polygon202" /><path
           fill="#FFFFFF"
           d="M475.3,350.8l-11.7-2.4c-5.1-1.1-8.8-5.6-8.8-10.8v-81.4c0-5.2,3.7-9.7,8.8-10.8l11.7-2.4     c14.8-3.1,28.7,8.2,28.7,23.3v61.1C504,342.6,490.1,353.9,475.3,350.8z"
           id="path204" /><path
           fill="#26A6D1"
           d="M661.7,337.3l-17.5,3.8v-88.4l17.5,3.8c17.8,3.9,30.5,19.6,30.5,37.9v5.1     C692.2,317.6,679.5,333.4,661.7,337.3z"
           id="path206" /><polygon
           fill="#208EB3"
           points="656.6,338.4 644.2,341.1 644.2,252.7 656.6,255.4    "
           id="polygon208" /><path
           fill="#FFFFFF"
           d="M627.8,350.8l11.7-2.4c5.1-1.1,8.8-5.6,8.8-10.8v-81.4c0-5.2-3.7-9.7-8.8-10.8l-11.7-2.4     c-14.8-3.1-28.7,8.2-28.7,23.3v61.1C599.1,342.6,613,353.9,627.8,350.8z"
           id="path210" /></g><path
         fill="#208EB3"
         d="M583.7,172.4c-20.7-7.7-43.6-7.7-64.3,0c-5.6,2.1-11.9-0.3-14.6-5.7c-0.4-0.7-0.8-1.5-1.1-2.2    c-3.2-6.3-0.2-13.9,6.4-16.4c26.8-10.1,56.4-10.1,83.1,0c6.6,2.5,9.6,10.1,6.4,16.4l-1.1,2.2C595.6,172.1,589.3,174.5,583.7,172.4    z"
         id="path214" /><path
         fill="#208EB3"
         d="M520,420.2l-26.4-8.6c-4.3-1.4-6.7-6-5.3-10.3l0.9-2.7c1.4-4.3,6-6.7,10.3-5.3l26.4,8.6    c4.3,1.4,6.7,6,5.3,10.3l-0.9,2.7C528.9,419.2,524.3,421.6,520,420.2z"
         id="path216" /></g><g
       id="g238"><rect
         x="1220.6"
         y="327.5"
         fill="#CFD2CF"
         width="18.8"
         height="30.9"
         id="rect220" /><path
         fill="#E5EAEB"
         d="M1230,330.5L1230,330.5c-22.7,0-41.1-18.4-41.1-41.1v-40.7c0-22.7,18.4-41.1,41.1-41.1h0    c22.7,0,41.1,18.4,41.1,41.1v40.7C1271.1,312.1,1252.7,330.5,1230,330.5z"
         id="path222" /><path
         fill="#CFD2CF"
         d="M1224.5,247.9L1224.5,247.9c0-3.5-2.9-6.4-6.4-6.4h-28.4c-0.4,2.4-0.6,4.8-0.6,7.3v5.5h29.1    C1221.6,254.3,1224.5,251.4,1224.5,247.9z"
         id="path224" /><path
         fill="#CFD2CF"
         d="M1218,275.5H1189v-12.8h29.1c3.5,0,6.4,2.9,6.4,6.4l0,0C1224.5,272.6,1221.6,275.5,1218,275.5z"
         id="path226" /><path
         fill="#CFD2CF"
         d="M1218,296.7c3.5,0,6.4-2.9,6.4-6.4l0,0c0-3.5-2.9-6.4-6.4-6.4H1189v5.5c0,2.5,0.2,4.9,0.6,7.3H1218z"
         id="path228" /><path
         fill="#CFD2CF"
         d="M1235.6,247.9L1235.6,247.9c0-3.5,2.9-6.4,6.4-6.4h28.4c0.4,2.4,0.6,4.8,0.6,7.3v5.5H1242    C1238.5,254.3,1235.6,251.4,1235.6,247.9z"
         id="path230" /><path
         fill="#CFD2CF"
         d="M1242,275.5h29.1v-12.8H1242c-3.5,0-6.4,2.9-6.4,6.4l0,0C1235.6,272.6,1238.5,275.5,1242,275.5z"
         id="path232" /><path
         fill="#CFD2CF"
         d="M1242,296.7c-3.5,0-6.4-2.9-6.4-6.4l0,0c0-3.5,2.9-6.4,6.4-6.4h29.1v5.5c0,2.5-0.2,4.9-0.6,7.3H1242z"
         id="path234" /><path
         fill="#A1A3A1"
         d="M1272.3,380h-84.5c-5.5,0-8.3-4.7-4.5-7.6l12.9-9.9c3.5-2.6,8.3-4.1,13.3-4.1h41c5,0,9.8,1.5,13.3,4.1    l12.9,9.9C1280.5,375.3,1277.7,380,1272.3,380z"
         id="path236" /></g><g
       id="g280"><g
         id="g258"><path
           fill="#595E80"
           d="M766.1,812.5H651.8c-11.9,0-21.6-9.7-21.6-21.6V577.4c0-11.9,9.7-21.6,21.6-21.6h114.3     c11.9,0,21.6,9.7,21.6,21.6V791C787.7,802.9,778.1,812.5,766.1,812.5z"
           id="path240" /><circle
           fill="#323E50"
           cx="709"
           cy="629"
           r="33.8"
           id="circle242" /><circle
           fill="#323E50"
           cx="709"
           cy="740.2"
           r="47.6"
           id="circle244" /><circle
           fill="#F6F4D6"
           cx="709"
           cy="740.2"
           r="24.6"
           id="circle246" /><circle
           fill="#F6F4D6"
           cx="709"
           cy="629"
           r="18"
           id="circle248" /><circle
           fill="#F6F4D6"
           cx="684.4"
           cy="713.3"
           r="3.6"
           id="circle250" /><circle
           fill="#F6F4D6"
           cx="733.6"
           cy="713.3"
           r="3.6"
           id="circle252" /><circle
           fill="#F6F4D6"
           cx="684.4"
           cy="768.4"
           r="3.6"
           id="circle254" /><circle
           fill="#F6F4D6"
           cx="733.6"
           cy="768.4"
           r="3.6"
           id="circle256" /></g><g
         id="g272"><g
           id="g264"><circle
             fill="#323E50"
             cx="649.5"
             cy="574.9"
             r="6.5"
             id="circle260" /><circle
             fill="#323E50"
             cx="768.5"
             cy="574.9"
             r="6.5"
             id="circle262" /></g><g
           id="g270"><circle
             fill="#323E50"
             cx="649.5"
             cy="793.5"
             r="6.5"
             id="circle266" /><circle
             fill="#323E50"
             cx="768.5"
             cy="793.5"
             r="6.5"
             id="circle268" /></g></g><g
         id="g278"><path
           fill="#323E50"
           d="M665.8,824.2h-9.2c-1.7,0-3.2-1.2-3.6-2.8l-2.3-8.8h21l-2.3,8.8C669,823,667.5,824.2,665.8,824.2z"
           id="path274" /><path
           fill="#323E50"
           d="M761.4,824.2h-9.2c-1.7,0-3.2-1.2-3.6-2.8l-2.3-8.8h21l-2.3,8.8C764.6,823,763.1,824.2,761.4,824.2z"
           id="path276" /></g></g><g
       id="g302"><path
         fill="#E5EAEB"
         d="M986.3,800.3h-88.6c-10.9,0-19.7-8.8-19.7-19.7V599.4c0-10.9,8.8-19.7,19.7-19.7h88.6    c10.9,0,19.7,8.8,19.7,19.7v181.3C1006,791.5,997.1,800.3,986.3,800.3z"
         id="path282" /><path
         fill="#546170"
         d="M983.8,658.7h-83.6c-5.8,0-10.6-4.7-10.6-10.6V610c0-5.8,4.7-10.6,10.6-10.6h83.6    c5.8,0,10.6,4.7,10.6,10.6v38.2C994.3,654,989.6,658.7,983.8,658.7z"
         id="path284" /><g
         id="g300"><circle
           fill="#FEFEFE"
           cx="942"
           cy="731"
           r="40.5"
           id="circle286" /><circle
           fill="#AFB0B1"
           cx="942"
           cy="731"
           r="14.1"
           id="circle288" /><g
           id="g294"><path
             fill="#AFB0B1"
             d="M944.7,708.2h-5.5c-2.1,0-3.9-1.7-3.9-3.9l0,0c0-2.1,1.7-3.9,3.9-3.9h5.5c2.1,0,3.9,1.7,3.9,3.9l0,0      C948.6,706.5,946.9,708.2,944.7,708.2z"
             id="path290" /><path
             fill="#AFB0B1"
             d="M944.7,761.5h-5.5c-2.1,0-3.9-1.7-3.9-3.9l0,0c0-2.1,1.7-3.9,3.9-3.9h5.5c2.1,0,3.9,1.7,3.9,3.9l0,0      C948.6,759.8,946.9,761.5,944.7,761.5z"
             id="path292" /></g><path
           fill="#AFB0B1"
           d="M918.1,734.9h-5.5c-2.1,0-3.9-1.7-3.9-3.9v0c0-2.1,1.7-3.9,3.9-3.9h5.5c2.1,0,3.9,1.7,3.9,3.9v0     C921.9,733.1,920.2,734.9,918.1,734.9z"
           id="path296" /><path
           fill="#AFB0B1"
           d="M971.4,734.9h-5.5c-2.1,0-3.9-1.7-3.9-3.9v0c0-2.1,1.7-3.9,3.9-3.9h5.5c2.1,0,3.9,1.7,3.9,3.9v0     C975.3,733.1,973.5,734.9,971.4,734.9z"
           id="path298" /></g></g><g
       id="g324"><path
         fill="#41324E"
         d="M1165.6,623.6c-36.7,35-38.1,93-3.1,129.7c35,36.7,93,38.1,129.7,3.1c36.7-35,38.1-93,3.1-129.7    C1260.3,590,1202.3,588.6,1165.6,623.6z M1237.5,699c-5,4.8-12.9,4.6-17.6-0.4c-4.8-5-4.6-12.9,0.4-17.6c5-4.8,12.9-4.6,17.6,0.4    C1242.7,686.4,1242.5,694.3,1237.5,699z"
         id="path304" /><path
         fill="#59446B"
         d="M1203,662.9c-15,14.3-15.6,38-1.3,53c14.3,15,38,15.6,53,1.3c15-14.3,15.6-38,1.3-53    C1241.7,649.1,1218,648.6,1203,662.9z M1237.5,699c-5,4.8-12.9,4.6-17.6-0.4c-4.8-5-4.6-12.9,0.4-17.6c5-4.8,12.9-4.6,17.6,0.4    C1242.7,686.4,1242.5,694.3,1237.5,699z"
         id="path306" /><g
         id="g314"><path
           fill="#C3C5C7"
           d="M1279.6,685.8c2.2-0.6,3.4-2.8,2.8-5c-5.6-20.6-21.1-36.8-41.4-43.4c-2.1-0.7-4.4,0.5-5.1,2.6     c-0.7,2.1,0.5,4.4,2.6,5.1c17.7,5.7,31.2,19.9,36.1,37.8c0.5,1.8,2.1,2.9,3.8,3C1278.8,685.9,1279.2,685.9,1279.6,685.8     L1279.6,685.8z"
           id="path308" /><path
           fill="#C3C5C7"
           d="M1294.7,681.7c2.2-0.6,3.4-2.8,2.8-5c-7-25.8-26.5-46.1-52-54.3c-2.1-0.7-4.4,0.5-5.1,2.6     c-0.7,2.1,0.5,4.4,2.6,5.1c22.9,7.3,40.4,25.5,46.7,48.7c0.5,1.8,2.1,2.9,3.8,3C1293.9,681.8,1294.3,681.8,1294.7,681.7     L1294.7,681.7z"
           id="path310" /><path
           fill="#C3C5C7"
           d="M1309.1,677c2.1-0.6,3.4-2.8,2.8-5c-8.5-30.3-31.5-54.1-61.4-63.9c-2.1-0.7-4.4,0.5-5.1,2.6     c-0.7,2.1,0.5,4.4,2.6,5.1c27.3,8.9,48.3,30.7,56.1,58.4c0.5,1.7,2.1,2.9,3.8,2.9C1308.3,677.2,1308.7,677.1,1309.1,677     L1309.1,677z"
           id="path312" /></g><g
         id="g322"><path
           fill="#C3C5C7"
           d="M1222.2,740.5c0.1-0.4,0.2-0.8,0.2-1.2c0-1.7-1-3.4-2.8-3.9c-17.7-5.8-31.1-19.9-36-37.9     c-0.6-2.2-2.8-3.4-5-2.8c-2.1,0.6-3.4,2.8-2.8,5c5.6,20.6,21,36.8,41.3,43.4C1219.2,743.7,1221.5,742.6,1222.2,740.5     L1222.2,740.5z"
           id="path316" /><path
           fill="#C3C5C7"
           d="M1217.3,755.3c0.1-0.4,0.2-0.8,0.2-1.1c0-1.7-1-3.4-2.8-3.9c-22.9-7.4-40.2-25.7-46.4-49     c-0.6-2.2-2.8-3.4-4.9-2.9c-2.2,0.6-3.4,2.8-2.9,4.9c6.9,25.9,26.2,46.3,51.7,54.6C1214.4,758.6,1216.6,757.5,1217.3,755.3     L1217.3,755.3z"
           id="path318" /><path
           fill="#C3C5C7"
           d="M1212,769.6c0.1-0.4,0.2-0.8,0.2-1.2c0-1.7-1-3.3-2.8-3.9c-27.3-9.1-48-31.1-55.6-58.8     c-0.6-2.2-2.8-3.4-5-2.8c-2.2,0.6-3.4,2.8-2.8,5c8.3,30.3,31,54.4,60.8,64.4C1209,772.8,1211.3,771.7,1212,769.6L1212,769.6z"
           id="path320" /></g></g></g></svg>